<svg xmlns="http://www.w3.org/2000/svg" viewBox="0 0 512 512" width="512" height="512">
  <rect width="512" height="512" fill="#6c733d" rx="80"/>
  <g transform="translate(256, 256)">
    <rect x="-160" y="-120" width="320" height="180" fill="#fff" rx="8" stroke="#f0f0f0" stroke-width="4"/>
    <rect x="-140" y="-100" width="100" height="8" fill="#e0e0e0" rx="4"/>
    <rect x="-140" y="-80" width="120" height="8" fill="#e0e0e0" rx="4"/>
    <rect x="-140" y="-60" width="80" height="8" fill="#e0e0e0" rx="4"/>
    <circle cx="80" cy="-60" r="35" fill="#6c733d" opacity="0.3"/>
    <path d="M 80 -80 L 60 -50 L 60 -30 L 100 -30 L 100 -50 Z" fill="#6c733d"/>
    <circle cx="80" cy="-90" r="12" fill="#6c733d"/>
    <rect x="-180" y="60" width="30" height="80" fill="#fff" rx="4"/>
    <rect x="150" y="60" width="30" height="80" fill="#fff" rx="4"/>
    <rect x="-150" y="130" width="300" height="20" fill="#fff" rx="10"/>
    <path d="M -120 -30 Q -120 -20, -110 -20 L 50 -20 Q 60 -20, 60 -30" fill="none" stroke="#d0d0d0" stroke-width="3"/>
  </g>
  <text x="256" y="440" font-family="Arial, sans-serif" font-size="48" font-weight="bold" fill="#fff" text-anchor="middle">EasyDesk</text>
</svg>
